<?xml version="1.0" standalone="no"?><!DOCTYPE svg PUBLIC "-//W3C//DTD SVG 1.1//EN" "http://www.w3.org/Graphics/SVG/1.1/DTD/svg11.dtd"><svg t="1608463417206" class="icon" viewBox="0 0 1024 1024" version="1.1" xmlns="http://www.w3.org/2000/svg" p-id="3957" xmlns:xlink="http://www.w3.org/1999/xlink" width="200" height="200"><defs><style type="text/css"></style></defs><path d="M512 652.9c-13.2 0-24-10.7-24-24V394.5c0-13.2 10.7-24 24-24s24 10.7 24 24v234.4c0 13.2-10.8 24-24 24z" fill="#200E32" opacity=".4" p-id="3958"></path><path d="M629.3 535.7H394.7c-13.2 0-24-10.7-24-24 0-13.2 10.7-24 24-24h234.6c13.2 0 24 10.7 24 24s-10.7 24-24 24z" fill="#200E32" opacity=".4" p-id="3959"></path><path d="M661.9 856H362.1C246 856 168 774.5 168 653.3V370.8C168 249.5 246 168 362.1 168H662c116.1 0 194 81.5 194 202.7v282.5C856 774.5 778 856 661.9 856zM362.1 216c-88.7 0-146 60.7-146 154.7v282.5c0 94 57.3 154.7 146 154.7H662c88.6 0.1 146-60.6 146-154.6V370.8c0-94-57.3-154.7-146-154.7H362.1z" fill="#200E32" p-id="3960"></path></svg>