<?xml version="1.0" standalone="no"?><!DOCTYPE svg PUBLIC "-//W3C//DTD SVG 1.1//EN" "http://www.w3.org/Graphics/SVG/1.1/DTD/svg11.dtd"><svg t="1607611182053" class="icon" viewBox="0 0 1024 1024" version="1.1" xmlns="http://www.w3.org/2000/svg" p-id="3848" xmlns:xlink="http://www.w3.org/1999/xlink" width="200" height="200"><defs><style type="text/css"></style></defs><path d="M568.7 694.2c0-126.9-40.8-228.6-42.5-232.8l-13.9-34.1-13.9 34.1c-1.7 4.3-42.5 105.9-42.5 232.8 0 11.8 0 23.5-0.1 34.8-0.4 97.2-0.7 167.4 26.8 195.1 8 8 18.3 12.3 29.7 12.3 12.4 0 23-4.3 31.5-12.9 26.7-27 26.1-91.2 25.2-180.2-0.1-15.9-0.3-32.3-0.3-49.1z m-31.4 154.9c-2.4 27.8-7.4 45.8-14.8 53.3-2.8 2.8-5.9 4-10.2 4-3.5 0-6-1-8.4-3.5-7.8-7.8-13.1-27.4-15.7-58.2-2.7-31.4-2.5-72.3-2.4-115.6 0-11.3 0.1-23 0.1-34.9 0-73.5 14.8-139.2 26.4-179.6 11.7 40.4 26.4 106.1 26.4 179.6 0 17 0.2 33.5 0.3 49.4 0.4 41.2 0.8 76.9-1.7 105.5z" p-id="3849"></path><path d="M901.3 347.5c-21.3-50.3-51.7-95.5-90.5-134.3-38.8-38.8-84-69.3-134.3-90.5-52.1-22-107.5-33.2-164.5-33.2s-112.4 11.2-164.5 33.2c-50.3 21.3-95.5 51.7-134.3 90.5-38.8 38.8-69.3 84-90.5 134.3-22 52.1-33.2 107.5-33.2 164.5 0 71.8 18.3 142.7 53 205.1 33.6 60.4 82.1 112.3 140.2 149.9 3.8 2.4 8 3.6 12.2 3.6 7.4 0 14.6-3.6 18.9-10.3 6.8-10.4 3.8-24.4-6.7-31.1-108.2-70-172.7-188.6-172.7-317.2 0-208.2 169.3-377.5 377.5-377.5S889.5 303.8 889.5 512c0 128.2-64.2 246.5-171.8 316.6-10.4 6.8-13.4 20.7-6.6 31.1 6.8 10.4 20.7 13.4 31.1 6.6C862.6 787.9 934.5 655.4 934.5 512c0-57-11.2-112.4-33.2-164.5z" p-id="3850"></path><path d="M254.4 317.6c-8.8-8.8-23-8.8-31.8 0s-8.8 23 0 31.8l92 92c4.4 4.4 10.2 6.6 15.9 6.6s11.5-2.2 15.9-6.6c8.8-8.8 8.8-23 0-31.8l-92-92zM801.4 349.4c8.8-8.8 8.8-23 0-31.8s-23-8.8-31.8 0l-92 92c-8.8 8.8-8.8 23 0 31.8 4.4 4.4 10.2 6.6 15.9 6.6s11.5-2.2 15.9-6.6l92-92zM534.5 315.6V185.4c0-12.4-10.1-22.5-22.5-22.5s-22.5 10.1-22.5 22.5v130.1c0 12.4 10.1 22.5 22.5 22.5 12.4 0.1 22.5-10 22.5-22.4z" p-id="3851"></path></svg>