<?xml version="1.0" standalone="no"?><!DOCTYPE svg PUBLIC "-//W3C//DTD SVG 1.1//EN" "http://www.w3.org/Graphics/SVG/1.1/DTD/svg11.dtd"><svg t="1607599238749" class="icon" viewBox="0 0 1024 1024" version="1.1" xmlns="http://www.w3.org/2000/svg" p-id="9227" xmlns:xlink="http://www.w3.org/1999/xlink" width="200" height="200"><defs><style type="text/css"></style></defs><path d="M382.1 557.2c-63.2 0-122.6-25.5-167.3-71.9-44.4-46.1-68.9-107.4-68.9-172.6s24.5-126.5 68.9-172.6c44.6-46.4 104-71.9 167.3-71.9 63.2 0 122.6 25.5 167.3 71.9 44.4 46.1 68.9 107.4 68.9 172.6 0 65.2-24.5 126.5-68.9 172.6-44.7 46.3-104.1 71.9-167.3 71.9z m0-448.3c-107.8 0-195.4 91.4-195.4 203.7s87.7 203.7 195.4 203.7S577.5 425 577.5 312.7s-87.7-203.8-195.4-203.8zM696.1 949.5H68c-21.7 0-39.4-17.7-39.4-39.4V787.6c0-61.4 23.9-119.2 67.4-162.6 43.4-43.4 101.2-67.4 162.6-67.4h246.9c12.3 0 24.7 1 36.8 2.9 11.1 1.8 18.7 12.2 16.9 23.4-1.8 11.1-12.2 18.7-23.4 16.9-9.9-1.6-20.1-2.4-30.3-2.4H258.6c-104.3 0-189.2 84.9-189.2 189.2v121.1h626c6.9-8.5 19.4-10 28.2-3.3 8.9 6.8 10.7 19.6 3.8 28.6-7.5 9.8-18.9 15.5-31.3 15.5z" fill="#1C1C1C" p-id="9228"></path><path d="M938.3 857.2H688.5c-31.7 0-57.5-25.8-57.5-57.5V500.4c0-38.4 31.2-69.7 69.7-69.7h237.6c33.4 0 60.5 27.2 60.5 60.5v305.3c0.1 33.5-27.1 60.7-60.5 60.7zM700.7 471.5c-15.9 0-28.9 13-28.9 28.9v299.3c0 9.2 7.5 16.7 16.7 16.7h249.8c10.9 0 19.8-8.9 19.8-19.8V491.3c0-10.9-8.9-19.8-19.8-19.8H700.7z" fill="#1C1C1C" p-id="9229"></path><path d="M875.4 607.1H754.5c-11.3 0-20.4-9.1-20.4-20.4 0-11.3 9.1-20.4 20.4-20.4h120.9c11.3 0 20.4 9.1 20.4 20.4-0.1 11.3-9.2 20.4-20.4 20.4zM875.4 721.6H754.5c-11.3 0-20.4-9.1-20.4-20.4s9.1-20.4 20.4-20.4h120.9c11.3 0 20.4 9.1 20.4 20.4s-9.2 20.4-20.4 20.4z" fill="#1C1C1C" p-id="9230"></path></svg>